<svg width="80" height="50" viewBox="0 0 80 50" fill="none" xmlns="http://www.w3.org/2000/svg">
<path d="M17.35 24V6.5H24.55C26.1 6.5 27.425 6.75 28.525 7.25C29.6417 7.75 30.5 8.46667 31.1 9.4C31.7 10.3333 32 11.4417 32 12.725C32 14.0083 31.7 15.1167 31.1 16.05C30.5 16.9833 29.6417 17.7 28.525 18.2C27.425 18.7 26.1 18.95 24.55 18.95H19.15L20.6 17.425V24H17.35ZM20.6 17.775L19.15 16.2H24.4C25.8333 16.2 26.9083 15.9 27.625 15.3C28.3583 14.6833 28.725 13.825 28.725 12.725C28.725 11.6083 28.3583 10.75 27.625 10.15C26.9083 9.55 25.8333 9.25 24.4 9.25H19.15L20.6 7.65V17.775ZM34.8234 24V10.65H37.7984V14.325L37.4484 13.25C37.8484 12.35 38.4734 11.6667 39.3234 11.2C40.1901 10.7333 41.2651 10.5 42.5484 10.5V13.475C42.4151 13.4417 42.2901 13.425 42.1734 13.425C42.0568 13.4083 41.9401 13.4 41.8234 13.4C40.6401 13.4 39.6984 13.75 38.9984 14.45C38.2984 15.1333 37.9484 16.1583 37.9484 17.525V24H34.8234Z" fill="#0057B8"/>
<path d="M2.35 44V26.5H5.6V44H2.35ZM17.6084 30.5C18.6751 30.5 19.6251 30.7083 20.4584 31.125C21.3084 31.5417 21.9751 32.1833 22.4584 33.05C22.9417 33.9 23.1834 35 23.1834 36.35V44H20.0584V36.75C20.0584 35.5667 19.7751 34.6833 19.2084 34.1C18.6584 33.5167 17.8834 33.225 16.8834 33.225C16.1501 33.225 15.5001 33.375 14.9334 33.675C14.3667 33.975 13.9251 34.425 13.6084 35.025C13.3084 35.6083 13.1584 36.35 13.1584 37.25V44H10.0334V30.65H13.0084V34.25L12.4834 33.15C12.9501 32.3 13.6251 31.65 14.5084 31.2C15.4084 30.7333 16.4417 30.5 17.6084 30.5ZM30.4535 44L24.7285 30.65H27.9785L32.9035 42.425H31.3035L36.4035 30.65H39.4035L33.6785 44H30.4535ZM47.2654 44.175C45.7821 44.175 44.4821 43.8833 43.3654 43.3C42.2654 42.7 41.4071 41.8833 40.7904 40.85C40.1904 39.8167 39.8904 38.6417 39.8904 37.325C39.8904 35.9917 40.1821 34.8167 40.7654 33.8C41.3654 32.7667 42.1821 31.9583 43.2154 31.375C44.2654 30.7917 45.4571 30.5 46.7904 30.5C48.0904 30.5 49.2488 30.7833 50.2654 31.35C51.2821 31.9167 52.0821 32.7167 52.6654 33.75C53.2488 34.7833 53.5404 36 53.5404 37.4C53.5404 37.5333 53.5321 37.6833 53.5154 37.85C53.5154 38.0167 53.5071 38.175 53.4904 38.325H42.3654V36.25H51.8404L50.6154 36.9C50.6321 36.1333 50.4738 35.4583 50.1404 34.875C49.8071 34.2917 49.3488 33.8333 48.7654 33.5C48.1988 33.1667 47.5404 33 46.7904 33C46.0238 33 45.3488 33.1667 44.7654 33.5C44.1988 33.8333 43.7488 34.3 43.4154 34.9C43.0988 35.4833 42.9404 36.175 42.9404 36.975V37.475C42.9404 38.275 43.1238 38.9833 43.4904 39.6C43.8571 40.2167 44.3738 40.6917 45.0404 41.025C45.7071 41.3583 46.4738 41.525 47.3404 41.525C48.0904 41.525 48.7654 41.4083 49.3654 41.175C49.9654 40.9417 50.4988 40.575 50.9654 40.075L52.6404 42C52.0404 42.7 51.2821 43.2417 50.3654 43.625C49.4654 43.9917 48.4321 44.175 47.2654 44.175ZM60.6672 44.175C59.5505 44.175 58.4755 44.0333 57.4422 43.75C56.4255 43.45 55.6172 43.0917 55.0172 42.675L56.2172 40.3C56.8172 40.6833 57.5339 41 58.3672 41.25C59.2005 41.5 60.0339 41.625 60.8672 41.625C61.8505 41.625 62.5589 41.4917 62.9922 41.225C63.4422 40.9583 63.6672 40.6 63.6672 40.15C63.6672 39.7833 63.5172 39.5083 63.2172 39.325C62.9172 39.125 62.5255 38.975 62.0422 38.875C61.5589 38.775 61.0172 38.6833 60.4172 38.6C59.8339 38.5167 59.2422 38.4083 58.6422 38.275C58.0589 38.125 57.5255 37.9167 57.0422 37.65C56.5589 37.3667 56.1672 36.9917 55.8672 36.525C55.5672 36.0583 55.4172 35.4417 55.4172 34.675C55.4172 33.825 55.6589 33.0917 56.1422 32.475C56.6255 31.8417 57.3005 31.3583 58.1672 31.025C59.0505 30.675 60.0922 30.5 61.2922 30.5C62.1922 30.5 63.1005 30.6 64.0172 30.8C64.9339 31 65.6922 31.2833 66.2922 31.65L65.0922 34.025C64.4589 33.6417 63.8172 33.3833 63.1672 33.25C62.5339 33.1 61.9005 33.025 61.2672 33.025C60.3172 33.025 59.6089 33.1667 59.1422 33.45C58.6922 33.7333 58.4672 34.0917 58.4672 34.525C58.4672 34.925 58.6172 35.225 58.9172 35.425C59.2172 35.625 59.6089 35.7833 60.0922 35.9C60.5755 36.0167 61.1089 36.1167 61.6922 36.2C62.2922 36.2667 62.8839 36.375 63.4672 36.525C64.0505 36.675 64.5839 36.8833 65.0672 37.15C65.5672 37.4 65.9672 37.7583 66.2672 38.225C66.5672 38.6917 66.7172 39.3 66.7172 40.05C66.7172 40.8833 66.4672 41.6083 65.9672 42.225C65.4839 42.8417 64.7922 43.325 63.8922 43.675C62.9922 44.0083 61.9172 44.175 60.6672 44.175ZM74.4334 44.175C72.9667 44.175 71.8334 43.8 71.0334 43.05C70.2334 42.2833 69.8334 41.1583 69.8334 39.675V27.7H72.9584V39.6C72.9584 40.2333 73.1167 40.725 73.4334 41.075C73.7667 41.425 74.2251 41.6 74.8084 41.6C75.5084 41.6 76.0917 41.4167 76.5584 41.05L77.4334 43.275C77.0667 43.575 76.6167 43.8 76.0834 43.95C75.5501 44.1 75.0001 44.175 74.4334 44.175ZM67.6334 33.25V30.75H76.5334V33.25H67.6334Z" fill="#FFD800"/>
<path d="M54.9698 5C49.4773 5 45 9.49085 45 15C45 20.509 49.4773 25 54.9698 25C60.4623 25 65 20.509 65 15C65 9.49085 60.4623 5 54.9698 5Z" fill="#FEDB41"/>
<path d="M65 15C65 20.509 60.4623 25 54.9698 25V5C60.4623 5 65 9.49085 65 15Z" fill="#FFCC33"/>
<path d="M63.1874 15C63.1874 19.509 59.4653 23.1818 54.9698 23.1818C50.4744 23.1818 46.8127 19.509 46.8127 15C46.8127 10.4908 50.4744 6.81818 54.9698 6.81818C59.4653 6.81818 63.1874 10.4908 63.1874 15Z" fill="#FEA832"/>
<path d="M63.1873 15C63.1873 19.509 59.4651 23.1818 54.9697 23.1818V6.81818C59.4651 6.81818 63.1873 10.4908 63.1873 15Z" fill="#FE9923"/>
<path d="M57.6889 16.8182C57.6889 17.9637 56.9637 18.9819 55.8943 19.3818H55.8762V20.4546C55.8762 20.9636 55.4775 21.3637 54.9699 21.3637C54.4622 21.3637 54.0635 20.9636 54.0635 20.4546V19.3818C53.4653 19.1818 52.9034 18.8 52.414 18.2001C52.0876 17.8182 52.1421 17.2545 52.5228 16.9273C52.9034 16.6001 53.4653 16.6545 53.7916 17.0364C54.1723 17.491 54.5892 17.7273 54.9699 17.7273C55.0787 17.7273 55.1693 17.7091 55.278 17.6727C55.6405 17.5454 55.8763 17.2 55.8763 16.8182C55.8763 16.3091 55.4775 15.9091 54.9699 15.9091C53.4653 15.9091 52.2509 14.6909 52.2509 13.1819C52.2509 12.0909 52.9034 11.0909 53.9185 10.6728C53.9548 10.6546 54.0091 10.6546 54.0636 10.6364V9.5455C54.0636 9.03635 54.4623 8.63641 54.9699 8.63641C55.4775 8.63641 55.8763 9.03635 55.8763 9.5455V10.6364C56.3476 10.8001 56.8007 11.0364 57.2176 11.4364C57.5802 11.7818 57.5802 12.3636 57.2358 12.7273C56.8914 13.091 56.3113 13.091 55.9487 12.7455C55.6405 12.4364 55.2961 12.2728 54.9699 12.2728C54.843 12.2728 54.7342 12.291 54.6254 12.3454C54.281 12.491 54.0635 12.8182 54.0635 13.1819C54.0635 13.6909 54.4622 14.091 54.9699 14.091C56.4744 14.091 57.6889 15.3091 57.6889 16.8182Z" fill="#FEDB41"/>
<path d="M57.6888 16.8182C57.6888 17.9637 56.9636 18.9819 55.8942 19.3818H55.8761V20.4546C55.8761 20.9636 55.4773 21.3637 54.9697 21.3637V17.7273C55.0785 17.7273 55.1691 17.7091 55.2778 17.6727C55.6404 17.5454 55.8761 17.2 55.8761 16.8182C55.8761 16.3091 55.4773 15.9091 54.9697 15.9091V14.091C56.4743 14.091 57.6888 15.3091 57.6888 16.8182ZM55.9485 12.7455C55.6404 12.4364 55.296 12.2728 54.9697 12.2728V8.63641C55.4773 8.63641 55.8761 9.03635 55.8761 9.5455V10.6364C56.3474 10.8001 56.8005 11.0364 57.2175 11.4364C57.58 11.7818 57.58 12.3636 57.2356 12.7273C56.8912 13.091 56.3111 13.091 55.9485 12.7455Z" fill="#FFCC33"/>
</svg>
